<svg width="150" height="150" viewBox="0 0 150 150" fill="none" xmlns="http://www.w3.org/2000/svg">
<g id="engineering">
<mask id="mask0_12_199" style="mask-type:alpha" maskUnits="userSpaceOnUse" x="0" y="0" width="150" height="150">
<rect id="Bounding box" width="150" height="150" fill="#D9D9D9"/>
</mask>
<g mask="url(#mask0_12_199)">
<path id="engineering_2" d="M6.5625 131.25V113.75C6.5625 110.312 7.44792 107.083 9.21875 104.062C10.9896 101.042 13.4375 98.75 16.5625 97.1875C21.875 94.4792 27.8646 92.1875 34.5312 90.3125C41.1979 88.4375 48.5417 87.5 56.5625 87.5C64.5833 87.5 71.9271 88.4375 78.5938 90.3125C85.2604 92.1875 91.25 94.4792 96.5625 97.1875C99.6875 98.75 102.135 101.042 103.906 104.062C105.677 107.083 106.562 110.312 106.562 113.75V131.25H6.5625ZM19.0625 118.75H94.0625V113.75C94.0625 112.604 93.776 111.562 93.2031 110.625C92.6302 109.688 91.875 108.958 90.9375 108.438C87.1875 106.562 82.3698 104.688 76.4844 102.812C70.599 100.938 63.9583 100 56.5625 100C49.1667 100 42.526 100.938 36.6406 102.812C30.7552 104.688 25.9375 106.562 22.1875 108.438C21.25 108.958 20.4948 109.688 19.9219 110.625C19.349 111.562 19.0625 112.604 19.0625 113.75V118.75ZM56.5625 81.25C49.6875 81.25 43.8021 78.8021 38.9062 73.9062C34.0104 69.0104 31.5625 63.125 31.5625 56.25H30C29.0625 56.25 28.3073 55.9635 27.7344 55.3906C27.1615 54.8177 26.875 54.0625 26.875 53.125C26.875 52.1875 27.1615 51.4323 27.7344 50.8594C28.3073 50.2865 29.0625 50 30 50H31.5625C31.5625 45.3125 32.7083 41.0938 35 37.3438C37.2917 33.5938 40.3125 30.625 44.0625 28.4375V34.375C44.0625 35.3125 44.349 36.0677 44.9219 36.6406C45.4948 37.2135 46.25 37.5 47.1875 37.5C48.125 37.5 48.8802 37.2135 49.4531 36.6406C50.026 36.0677 50.3125 35.3125 50.3125 34.375V25.9375C51.25 25.625 52.2396 25.3906 53.2812 25.2344C54.3229 25.0781 55.4167 25 56.5625 25C57.7083 25 58.8021 25.0781 59.8438 25.2344C60.8854 25.3906 61.875 25.625 62.8125 25.9375V34.375C62.8125 35.3125 63.099 36.0677 63.6719 36.6406C64.2448 37.2135 65 37.5 65.9375 37.5C66.875 37.5 67.6302 37.2135 68.2031 36.6406C68.776 36.0677 69.0625 35.3125 69.0625 34.375V28.4375C72.8125 30.625 75.8333 33.5938 78.125 37.3438C80.4167 41.0938 81.5625 45.3125 81.5625 50H83.125C84.0625 50 84.8177 50.2865 85.3906 50.8594C85.9635 51.4323 86.25 52.1875 86.25 53.125C86.25 54.0625 85.9635 54.8177 85.3906 55.3906C84.8177 55.9635 84.0625 56.25 83.125 56.25H81.5625C81.5625 63.125 79.1146 69.0104 74.2188 73.9062C69.3229 78.8021 63.4375 81.25 56.5625 81.25ZM56.5625 68.75C60 68.75 62.9427 67.526 65.3906 65.0781C67.8385 62.6302 69.0625 59.6875 69.0625 56.25H44.0625C44.0625 59.6875 45.2865 62.6302 47.7344 65.0781C50.1823 67.526 53.125 68.75 56.5625 68.75ZM103.438 93.75L102.5 89.0625C101.875 88.8542 101.276 88.6198 100.703 88.3594C100.13 88.099 99.5833 87.7083 99.0625 87.1875L94.6875 88.75L91.5625 83.125L95 80V76.25L91.5625 73.125L94.6875 67.5L99.0625 69.0625C99.4792 68.6458 100 68.2812 100.625 67.9688C101.25 67.6562 101.875 67.3958 102.5 67.1875L103.438 62.5H109.688L110.625 67.1875C111.25 67.3958 111.875 67.6562 112.5 67.9688C113.125 68.2812 113.646 68.6458 114.063 69.0625L118.438 67.5L121.562 73.125L118.125 76.25V80L121.562 83.125L118.438 88.75L114.063 87.1875C113.542 87.7083 112.995 88.099 112.422 88.3594C111.849 88.6198 111.25 88.8542 110.625 89.0625L109.688 93.75H103.438ZM106.562 82.8125C107.812 82.8125 108.906 82.3438 109.844 81.4063C110.781 80.4688 111.25 79.375 111.25 78.125C111.25 76.875 110.781 75.7813 109.844 74.8438C108.906 73.9063 107.812 73.4375 106.562 73.4375C105.312 73.4375 104.219 73.9063 103.281 74.8438C102.344 75.7813 101.875 76.875 101.875 78.125C101.875 79.375 102.344 80.4688 103.281 81.4063C104.219 82.3438 105.312 82.8125 106.562 82.8125ZM117.813 62.5L116.562 55.9375C115.625 55.625 114.766 55.2344 113.984 54.7656C113.203 54.2969 112.5 53.75 111.875 53.125L105.312 55.3125L100.938 47.8125L106.25 43.125C106.042 42.6042 105.938 42.1875 105.938 41.875V39.375C105.938 39.0625 106.042 38.6458 106.25 38.125L100.938 33.4375L105.312 25.9375L111.875 28.125C112.5 27.5 113.203 26.9531 113.984 26.4844C114.766 26.0156 115.625 25.625 116.562 25.3125L117.813 18.75H126.563L127.812 25.3125C128.75 25.625 129.609 26.0156 130.391 26.4844C131.172 26.9531 131.875 27.5 132.5 28.125L139.062 25.9375L143.438 33.4375L138.125 38.125C138.333 38.6458 138.438 39.0625 138.438 39.375V41.875C138.438 42.1875 138.333 42.6042 138.125 43.125L143.438 47.8125L139.062 55.3125L132.5 53.125C131.875 53.75 131.172 54.2969 130.391 54.7656C129.609 55.2344 128.75 55.625 127.812 55.9375L126.563 62.5H117.813ZM122.188 48.4375C124.375 48.4375 126.224 47.6823 127.734 46.1719C129.245 44.6615 130 42.8125 130 40.625C130 38.4375 129.245 36.5885 127.734 35.0781C126.224 33.5677 124.375 32.8125 122.188 32.8125C120 32.8125 118.151 33.5677 116.641 35.0781C115.13 36.5885 114.375 38.4375 114.375 40.625C114.375 42.8125 115.13 44.6615 116.641 46.1719C118.151 47.6823 120 48.4375 122.188 48.4375Z" fill="#FCFCFC"/>
</g>
</g>
</svg>
