<svg width="150" height="150" viewBox="0 0 150 150" fill="none" xmlns="http://www.w3.org/2000/svg">
<g id="globe">
<mask id="mask0_12_224" style="mask-type:alpha" maskUnits="userSpaceOnUse" x="0" y="0" width="150" height="150">
<rect id="Bounding box" width="150" height="150" fill="#D9D9D9"/>
</mask>
<g mask="url(#mask0_12_224)">
<path id="globe_2" d="M75 137.5C66.3542 137.5 58.2292 135.859 50.625 132.578C43.0208 129.297 36.4062 124.844 30.7812 119.219C25.1562 113.594 20.7031 106.979 17.4219 99.375C14.1406 91.7708 12.5 83.6458 12.5 75C12.5 66.3542 14.1406 58.2292 17.4219 50.625C20.7031 43.0208 25.1562 36.4062 30.7812 30.7812C36.4062 25.1562 43.0208 20.7031 50.625 17.4219C58.2292 14.1406 66.3542 12.5 75 12.5C83.6458 12.5 91.7708 14.1406 99.375 17.4219C106.979 20.7031 113.594 25.1562 119.219 30.7812C124.844 36.4062 129.297 43.0208 132.578 50.625C135.859 58.2292 137.5 66.3542 137.5 75C137.5 83.6458 135.859 91.7708 132.578 99.375C129.297 106.979 124.844 113.594 119.219 119.219C113.594 124.844 106.979 129.297 99.375 132.578C91.7708 135.859 83.6458 137.5 75 137.5ZM75 125C88.9583 125 100.781 120.156 110.469 110.469C120.156 100.781 125 88.9583 125 75C125 74.2708 124.974 73.5156 124.922 72.7344C124.87 71.9531 124.844 71.3021 124.844 70.7812C124.323 73.8021 122.917 76.3021 120.625 78.2812C118.333 80.2604 115.625 81.25 112.5 81.25H100C96.5625 81.25 93.6198 80.026 91.1719 77.5781C88.724 75.1302 87.5 72.1875 87.5 68.75V62.5H62.5V50C62.5 46.5625 63.724 43.6198 66.1719 41.1719C68.6198 38.724 71.5625 37.5 75 37.5H81.25C81.25 35.1042 81.901 32.9948 83.2031 31.1719C84.5052 29.349 86.0938 27.8646 87.9688 26.7188C85.8854 26.1979 83.776 25.7812 81.6406 25.4688C79.5052 25.1562 77.2917 25 75 25C61.0417 25 49.2188 29.8438 39.5313 39.5313C29.8438 49.2188 25 61.0417 25 75H56.25C63.125 75 69.0104 77.4479 73.9062 82.3438C78.8021 87.2396 81.25 93.125 81.25 100V106.25H62.5V123.438C64.5833 123.958 66.6406 124.349 68.6719 124.609C70.7031 124.87 72.8125 125 75 125Z" fill="#FCFCFC"/>
</g>
</g>
</svg>
