<svg width="150" height="150" viewBox="0 0 150 150" fill="none" xmlns="http://www.w3.org/2000/svg">
<g id="handshake">
<mask id="mask0_12_388" style="mask-type:alpha" maskUnits="userSpaceOnUse" x="0" y="0" width="150" height="150">
<rect id="Bounding box" width="150" height="150" fill="#D9D9D9"/>
</mask>
<g mask="url(#mask0_12_388)">
<path id="handshake_2" d="M75.625 131.25C73.8542 131.25 72.3698 130.651 71.1719 129.453C69.974 128.255 69.375 126.771 69.375 125C69.375 124.271 69.5312 123.516 69.8438 122.734C70.1562 121.953 70.625 121.25 71.25 120.625L100.156 91.7188L95.625 87.1875L66.875 116.094C66.25 116.719 65.5729 117.188 64.8438 117.5C64.1146 117.812 63.3333 117.969 62.5 117.969C60.7292 117.969 59.2448 117.37 58.0469 116.172C56.849 114.974 56.25 113.49 56.25 111.719C56.25 110.677 56.4062 109.818 56.7188 109.141C57.0312 108.464 57.4479 107.865 57.9688 107.344L86.875 78.4375L82.5 74.0625L53.5938 102.812C52.9688 103.438 52.2917 103.906 51.5625 104.219C50.8333 104.531 50 104.688 49.0625 104.688C47.3958 104.688 45.9375 104.062 44.6875 102.812C43.4375 101.562 42.8125 100.104 42.8125 98.4375C42.8125 97.6042 42.9688 96.8229 43.2813 96.0938C43.5938 95.3646 44.0625 94.6875 44.6875 94.0625L73.5938 65.1562L69.0625 60.7812L40.3125 89.6875C39.7917 90.2083 39.1667 90.625 38.4375 90.9375C37.7083 91.25 36.8229 91.4062 35.7812 91.4062C34.0104 91.4062 32.526 90.8073 31.3281 89.6094C30.1302 88.4115 29.5312 86.9271 29.5312 85.1562C29.5312 84.3229 29.6875 83.5417 30 82.8125C30.3125 82.0833 30.7812 81.4062 31.4062 80.7812L66.25 45.9375L89.6875 69.5312C90.8333 70.6771 92.1875 71.5885 93.75 72.2656C95.3125 72.9427 96.875 73.2813 98.4375 73.2813C101.771 73.2813 104.688 72.1094 107.188 69.7656C109.688 67.4219 110.938 64.4271 110.938 60.7812C110.938 59.3229 110.677 57.8125 110.156 56.25C109.635 54.6875 108.698 53.2292 107.344 51.875L79.375 23.9062C81.1458 22.2396 83.125 20.9635 85.3125 20.0781C87.5 19.1927 89.6875 18.75 91.875 18.75C94.5833 18.75 97.0833 19.1927 99.375 20.0781C101.667 20.9635 103.75 22.3438 105.625 24.2188L132.031 50.7812C133.906 52.6562 135.286 54.7396 136.172 57.0312C137.057 59.3229 137.5 61.9792 137.5 65C137.5 67.0833 137.031 69.1927 136.094 71.3281C135.156 73.4635 133.802 75.4167 132.031 77.1875L80 129.375C79.1667 130.208 78.4375 130.729 77.8125 130.938C77.1875 131.146 76.4583 131.25 75.625 131.25ZM22.0312 81.25L17.9688 77.1875C16.1979 75.5208 14.8438 73.5417 13.9062 71.25C12.9688 68.9583 12.5 66.5625 12.5 64.0625C12.5 61.3542 13.0208 58.8542 14.0625 56.5625C15.1042 54.2708 16.4062 52.3438 17.9688 50.7812L44.375 24.2188C46.0417 22.5521 48.0208 21.224 50.3125 20.2344C52.6042 19.2448 54.8438 18.75 57.0312 18.75C59.8438 18.75 62.3438 19.1406 64.5312 19.9219C66.7188 20.7031 68.8542 22.1354 70.9375 24.2188L102.969 56.25C103.594 56.875 104.062 57.5521 104.375 58.2812C104.688 59.0104 104.844 59.7917 104.844 60.625C104.844 62.2917 104.219 63.75 102.969 65C101.719 66.25 100.26 66.875 98.5938 66.875C97.6562 66.875 96.875 66.7448 96.25 66.4844C95.625 66.224 94.9479 65.7292 94.2188 65L66.0938 37.1875L22.0312 81.25Z" fill="#FCFCFC"/>
</g>
</g>
</svg>
