<svg width="36" height="36" viewBox="0 0 36 36" fill="none" xmlns="http://www.w3.org/2000/svg">
<mask id="mask0_208_768" style="mask-type:alpha" maskUnits="userSpaceOnUse" x="0" y="0" width="36" height="36">
<rect width="36" height="36" fill="#D9D9D9"/>
</mask>
<g mask="url(#mask0_208_768)">
<path d="M23.25 29.8875L16.875 23.5125L18.975 21.4125L23.25 25.6875L31.725 17.2125L33.825 19.3125L23.25 29.8875ZM31.5 15H28.5V7.5H25.5V12H10.5V7.5H7.5V28.5H16.5V31.5H7.5C6.675 31.5 5.96875 31.2063 5.38125 30.6188C4.79375 30.0312 4.5 29.325 4.5 28.5V7.5C4.5 6.675 4.79375 5.96875 5.38125 5.38125C5.96875 4.79375 6.675 4.5 7.5 4.5H13.7625C14.0375 3.625 14.575 2.90625 15.375 2.34375C16.175 1.78125 17.05 1.5 18 1.5C19 1.5 19.8938 1.78125 20.6813 2.34375C21.4688 2.90625 22 3.625 22.275 4.5H28.5C29.325 4.5 30.0313 4.79375 30.6188 5.38125C31.2063 5.96875 31.5 6.675 31.5 7.5V15ZM18 7.5C18.425 7.5 18.7813 7.35625 19.0688 7.06875C19.3563 6.78125 19.5 6.425 19.5 6C19.5 5.575 19.3563 5.21875 19.0688 4.93125C18.7813 4.64375 18.425 4.5 18 4.5C17.575 4.5 17.2188 4.64375 16.9313 4.93125C16.6438 5.21875 16.5 5.575 16.5 6C16.5 6.425 16.6438 6.78125 16.9313 7.06875C17.2188 7.35625 17.575 7.5 18 7.5Z" fill="#FCFCFC"/>
</g>
</svg>
