<svg width="142" height="90" viewBox="0 0 142 90" fill="none"
  xmlns="http://www.w3.org/2000/svg">
  <path d="M105.106 35.8198L52.5884 2.60266C52.5884 2.60266 54.9396 6.95001 57.5132 11.7194H35.8803C35.0456 11.7194 34.3778 12.3948 34.3778 13.2389C34.3778 14.083 35.0456 14.7584 35.8803 14.7584H59.1409C60.3234 16.9391 61.4503 19.0354 62.3407 20.6814H46.982C46.1473 20.6814 45.4795 21.3568 45.4795 22.2009C45.4795 23.0451 46.1473 23.7204 46.982 23.7204H65.0535L77.0733 32.0071H67.0011C66.1664 32.0071 65.4986 32.6824 65.4986 33.5265C65.4986 34.3707 66.1664 35.046 67.0011 35.046H76.9759L65.0813 39.8998H44.6865C43.8518 39.8998 43.184 40.5751 43.184 41.4193C43.184 42.2634 43.8518 42.9388 44.6865 42.9388H60.2121C57.3602 45.1054 54.7865 47.2439 52.4772 49.3402H41.2225C40.3878 49.3402 39.72 50.0155 39.72 50.8597C39.72 51.7038 40.3878 52.3791 41.2225 52.3791H49.2635C29.3557 72.2165 32.2493 87.3971 32.2493 87.3971L105.106 35.8198Z" fill="#FCFCFC"/>
  <path d="M37.1189 39.928H25.4468C24.6121 39.928 23.9443 40.6034 23.9443 41.4475C23.9443 42.2916 24.6121 42.967 25.4468 42.967H37.1189C37.9536 42.967 38.6213 42.2916 38.6213 41.4475C38.6213 40.6034 37.9397 39.928 37.1189 39.928Z" fill="#FCFCFC"/>
  <path d="M33.2788 52.4215H33.6545C34.4892 52.4215 35.1569 51.7462 35.1569 50.9021C35.1569 50.0579 34.4892 49.3826 33.6545 49.3826H33.2788C32.4441 49.3826 31.7764 50.0579 31.7764 50.9021C31.7764 51.7321 32.458 52.4215 33.2788 52.4215Z" fill="#FCFCFC"/>
  <path d="M13.8443 23.7346H39.4004C40.2351 23.7346 40.9029 23.0593 40.9029 22.2152C40.9029 21.371 40.2351 20.6957 39.4004 20.6957H13.8026C12.954 20.6957 12.2584 21.4132 12.3001 22.2855C12.3419 23.1015 13.0375 23.7346 13.8443 23.7346Z" fill="#FCFCFC"/>
  <path d="M30.5938 32.0352H20.1739C19.3392 32.0352 18.6714 32.7105 18.6714 33.5547C18.6714 34.3988 19.3392 35.0741 20.1739 35.0741H30.5938C31.4285 35.0741 32.0963 34.3988 32.0963 33.5547C32.0963 32.7105 31.4285 32.0352 30.5938 32.0352Z" fill="#FCFCFC"/>
  <path d="M38.1763 35.0741H59.4058C60.2405 35.0741 60.9083 34.3988 60.9083 33.5547C60.9083 32.7105 60.2405 32.0352 59.4058 32.0352H38.1763C37.3416 32.0352 36.6738 32.7105 36.6738 33.5547C36.6738 34.3988 37.3416 35.0741 38.1763 35.0741Z" fill="#FCFCFC"/>
  <path d="M0.00178527 33.625C0.0435208 34.441 0.739113 35.0741 1.546 35.0741H12.5781C13.4128 35.0741 14.0806 34.3988 14.0806 33.5547C14.0806 32.7105 13.4128 32.0352 12.5781 32.0352H1.50426C0.655642 32.0352 -0.0399503 32.7527 0.00178527 33.625Z" fill="#FCFCFC"/>
  <path d="M25.4884 14.7725H28.3125C29.1472 14.7725 29.815 14.0972 29.815 13.2531C29.815 12.4089 29.1472 11.7336 28.3125 11.7336H25.4466C24.598 11.7336 23.9024 12.4511 23.9442 13.3234C23.9859 14.1394 24.6815 14.7725 25.4884 14.7725Z" fill="#FCFCFC"/>
  <path d="M126.168 35.2572L70.4236 0H84.1407L142 35.0743L59.9897 90H45.1736L126.168 35.2572Z" fill="#FCFCFC"/>
</svg>
