<svg width="150" height="150" viewBox="0 0 150 150" fill="none" xmlns="http://www.w3.org/2000/svg">
<g id="link">
<mask id="mask0_12_172" style="mask-type:alpha" maskUnits="userSpaceOnUse" x="0" y="0" width="150" height="150">
<rect id="Bounding box" width="150" height="150" fill="#D9D9D9"/>
</mask>
<g mask="url(#mask0_12_172)">
<path id="link_2" d="M68.75 106.25H43.75C35.1042 106.25 27.7344 103.203 21.6406 97.1094C15.5469 91.0156 12.5 83.6458 12.5 75C12.5 66.3542 15.5469 58.9844 21.6406 52.8906C27.7344 46.7969 35.1042 43.75 43.75 43.75H68.75V56.25H43.75C38.5417 56.25 34.1146 58.0729 30.4688 61.7188C26.8229 65.3646 25 69.7917 25 75C25 80.2083 26.8229 84.6354 30.4688 88.2812C34.1146 91.9271 38.5417 93.75 43.75 93.75H68.75V106.25ZM50 81.25V68.75H100V81.25H50ZM81.25 106.25V93.75H106.25C111.458 93.75 115.885 91.9271 119.531 88.2812C123.177 84.6354 125 80.2083 125 75C125 69.7917 123.177 65.3646 119.531 61.7188C115.885 58.0729 111.458 56.25 106.25 56.25H81.25V43.75H106.25C114.896 43.75 122.266 46.7969 128.359 52.8906C134.453 58.9844 137.5 66.3542 137.5 75C137.5 83.6458 134.453 91.0156 128.359 97.1094C122.266 103.203 114.896 106.25 106.25 106.25H81.25Z" fill="#FCFCFC"/>
</g>
</g>
</svg>
